<?xml version="1.0" encoding="UTF-8" standalone="no" ?>
<!DOCTYPE svg PUBLIC "-//W3C//DTD SVG 1.1//EN" "http://www.w3.org/Graphics/SVG/1.1/DTD/svg11.dtd">
<svg xmlns="http://www.w3.org/2000/svg" xmlns:xlink="http://www.w3.org/1999/xlink" version="1.1" width="1080" height="1080" viewBox="0 0 1080 1080" xml:space="preserve">
<desc>Created with Fabric.js 5.2.4</desc>
<defs>
</defs>
<rect x="0" y="0" width="100%" height="100%" fill="transparent"></rect>
<g transform="matrix(1 0 0 1 540 540)" id="af977435-3979-429d-b05b-adb5efe1ad70"  >
<rect style="stroke: none; stroke-width: 1; stroke-dasharray: none; stroke-linecap: butt; stroke-dashoffset: 0; stroke-linejoin: miter; stroke-miterlimit: 4; fill: rgb(255,255,255); fill-rule: nonzero; opacity: 1; visibility: hidden;" vector-effect="non-scaling-stroke"  x="-540" y="-540" rx="0" ry="0" width="1080" height="1080" />
</g>
<g transform="matrix(1 0 0 1 540 540)" id="167528f3-abe1-4a2f-93b2-701bf372f7cf"  >
</g>
<g transform="matrix(NaN NaN NaN NaN 0 0)"  >
<g style=""   >
</g>
</g>
<g transform="matrix(NaN NaN NaN NaN 0 0)"  >
<g style=""   >
</g>
</g>
<g transform="matrix(NaN NaN NaN NaN 0 0)"  >
<g style=""   >
</g>
</g>
<g transform="matrix(NaN NaN NaN NaN 0 0)"  >
<g style=""   >
</g>
</g>
<g transform="matrix(NaN NaN NaN NaN 0 0)"  >
<g style=""   >
</g>
</g>
<g transform="matrix(NaN NaN NaN NaN 0 0)"  >
<g style=""   >
</g>
</g>
<g transform="matrix(NaN NaN NaN NaN 0 0)"  >
<g style=""   >
</g>
</g>
<g transform="matrix(NaN NaN NaN NaN 0 0)"  >
<g style=""   >
</g>
</g>
<g transform="matrix(1 0 0 1 540 540)" id="primary"  >
<path style="stroke: rgb(255,104,179); stroke-width: 0; stroke-dasharray: none; stroke-linecap: butt; stroke-dashoffset: 0; stroke-linejoin: miter; stroke-miterlimit: 4; fill: rgb(255,104,179); fill-rule: nonzero; opacity: 1;" vector-effect="non-scaling-stroke"  transform=" translate(-12.01, -12)" d="M 18.82 9.18 C 18.49782347851354 8.46328191162825 17.785798855302744 8.001639573502569 17 8 L 15.19 8 L 16.52 4.74 C 16.761146450495367 4.1324687013797865 16.69020279975728 3.4454354521267336 16.33 2.9000000000000004 C 15.944792985367961 2.3346815579532194 15.304078175264074 1.9974632368459102 14.62 1.9999999999999996 L 10.28 2 C 9.43971972569077 1.979927773353867 8.676550088181543 2.4873756475092166 8.37 3.269999999999999 L 5.139999999999999 11.27 C 4.905282822475008 11.87625114658934 4.979873850507291 12.558759053084726 5.339999999999999 13.1 C 5.725207014632037 13.66531844204678 6.365921824735924 14.00253676315409 7.049999999999999 14 L 9.81 14 L 8 20.74 C 7.875761156587759 21.193197926223625 8.083832257731764 21.67176145885484 8.5 21.889999999999997 C 8.65593874655898 21.96477782419384 8.827075969218985 22.002428013179042 9 22 C 9.292311818211424 22.00001923133205 9.569997318383992 21.87213775098942 9.76 21.65 L 18.560000000000002 11.28 C 19.040199884258197 10.686924957512982 19.14106084308714 9.872278751586915 18.82 9.18 Z" stroke-linecap="round" />
</g>
<g transform="matrix(NaN NaN NaN NaN 0 0)"  >
<g style=""   >
</g>
</g>
<g transform="matrix(NaN NaN NaN NaN 0 0)"  >
<g style=""   >
</g>
</g>
<g transform="matrix(NaN NaN NaN NaN 0 0)"  >
<g style=""   >
</g>
</g>
<g transform="matrix(NaN NaN NaN NaN 0 0)"  >
<g style=""   >
</g>
</g>
</svg>