<?xml version="1.0" encoding="UTF-8" standalone="no" ?>
<!DOCTYPE svg PUBLIC "-//W3C//DTD SVG 1.1//EN" "http://www.w3.org/Graphics/SVG/1.1/DTD/svg11.dtd">
<svg xmlns="http://www.w3.org/2000/svg" xmlns:xlink="http://www.w3.org/1999/xlink" version="1.1" width="1080" height="1080" viewBox="0 0 1080 1080" xml:space="preserve">
<desc>Created with Fabric.js 5.2.4</desc>
<defs>
</defs>
<rect x="0" y="0" width="100%" height="100%" fill="transparent"></rect>
<g transform="matrix(1 0 0 1 540 540)" id="739f4de8-55be-4d4c-8867-38f14ad83e12"  >
</g>
<g transform="matrix(1 0 0 1 540 540)" id="560ef3a2-7c4f-41dc-be09-bae50957dd5d"  >
<rect style="stroke: none; stroke-width: 1; stroke-dasharray: none; stroke-linecap: butt; stroke-dashoffset: 0; stroke-linejoin: miter; stroke-miterlimit: 4; fill: rgb(255,255,255); fill-rule: nonzero; opacity: 1; visibility: hidden;" vector-effect="non-scaling-stroke"  x="-540" y="-540" rx="0" ry="0" width="1080" height="1080" />
</g>
<g transform="matrix(1 0 0 1 540 540)"  >
<rect style="stroke: none; stroke-width: 1; stroke-dasharray: none; stroke-linecap: butt; stroke-dashoffset: 0; stroke-linejoin: miter; stroke-miterlimit: 4; fill: rgb(255,255,255); fill-rule: nonzero; opacity: 1; visibility: hidden;" vector-effect="non-scaling-stroke"  x="-540" y="-540" rx="0" ry="0" width="1080" height="1080" />
</g>
<g transform="matrix(1 0 0 1 540 540)"  >
<rect style="stroke: none; stroke-width: 1; stroke-dasharray: none; stroke-linecap: butt; stroke-dashoffset: 0; stroke-linejoin: miter; stroke-miterlimit: 4; fill: rgb(255,255,255); fill-rule: nonzero; opacity: 1; visibility: hidden;" vector-effect="non-scaling-stroke"  x="-540" y="-540" rx="0" ry="0" width="1080" height="1080" />
</g>
<g transform="matrix(0 0 0 0 0 0)"  >
<g style=""   >
</g>
</g>
<g transform="matrix(0 0 0 0 0 0)"  >
<g style=""   >
</g>
</g>
<g transform="matrix(0 0 0 0 0 0)"  >
<g style=""   >
</g>
</g>
<g transform="matrix(0 0 0 0 0 0)"  >
<g style=""   >
</g>
</g>
<g transform="matrix(1 0 0 1 540 540)"  >
<g style="" vector-effect="non-scaling-stroke"   >
		<g transform="matrix(1.59 0 0 1.59 -1.47 -254.29)"  >
<circle style="stroke: none; stroke-width: 1; stroke-dasharray: none; stroke-linecap: butt; stroke-dashoffset: 0; stroke-linejoin: miter; stroke-miterlimit: 4; fill: rgb(255,104,179); fill-rule: nonzero; opacity: 1;" vector-effect="non-scaling-stroke"  cx="0" cy="0" r="58.694" />
</g>
		<g transform="matrix(1.59 0 0 1.59 0.09 110.46)"  >
<path style="stroke: none; stroke-width: 1; stroke-dasharray: none; stroke-linecap: butt; stroke-dashoffset: 0; stroke-linejoin: miter; stroke-miterlimit: 4; fill: rgb(255,104,179); fill-rule: nonzero; opacity: 1;" vector-effect="non-scaling-stroke"  transform=" translate(-251.38, -320.73)" d="M 455.861 253.028 L 401.158 241.617 C 382.521 237.713 364.12100000000004 246.255 354.39300000000003 261.441 C 344.94500000000005 256.58799999999997 334.785 252.40299999999996 323.978 248.92999999999998 L 323.978 216.40099999999998 C 324 191.789 303.85200000000003 171.66299999999998 279.327 171.66299999999998 L 223.394 171.66299999999998 C 198.739 171.66299999999998 178.678 191.789 178.678 216.40099999999998 L 178.678 249.10199999999998 C 167.97899999999998 252.50999999999996 157.927 256.695 148.414 261.57 C 138.68599999999998 246.319 120.26399999999998 237.713 101.60499999999999 241.617 L 46.85799999999999 253.028 C 22.82799999999999 258.054 7.231999999999992 281.89 12.257999999999988 306.006 L 25.998999999999988 371.64599999999996 C 30.98199999999999 395.69699999999995 54.838999999999984 411.29299999999995 78.89099999999999 406.26699999999994 L 96.21199999999999 402.6429999999999 C 104.88299999999998 415.4559999999999 116.87699999999998 427.21199999999993 132.23499999999999 437.2639999999999 C 164.224 458.2309999999999 206.48199999999997 469.7929999999999 251.327 469.7929999999999 C 319.944 469.7929999999999 379.048 442.2039999999999 406.27 402.57799999999986 L 423.87199999999996 406.2669999999999 C 447.90199999999993 411.2709999999999 471.75899999999996 395.6969999999999 476.74199999999996 371.6459999999999 L 490.50399999999996 306.0059999999999 C 495.508 281.89 479.912 258.054 455.861 253.028 z M 251.305 447.381 C 210.79500000000002 447.381 172.83 437.178 144.508 418.51899999999995 C 134.80100000000002 412.17699999999996 126.75500000000001 405.12399999999997 120.30600000000001 397.57399999999996 L 133.572 394.79099999999994 C 157.645 389.7869999999999 173.24099999999999 365.95099999999996 168.215 341.87799999999993 L 155.898 282.8599999999999 C 163.081 278.9989999999999 170.631 275.6119999999999 178.655 272.7219999999999 L 178.655 283.48599999999993 C 178.655 308.05499999999995 198.75900000000001 328.1809999999999 223.371 328.1809999999999 L 279.30400000000003 328.1809999999999 C 303.85200000000003 328.1809999999999 323.956 308.03399999999993 323.956 283.48599999999993 L 323.956 272.16099999999994 C 332.13100000000003 275.0729999999999 339.81 278.4169999999999 346.92900000000003 282.21299999999997 L 334.439 341.9 C 329.456 365.97299999999996 345.03000000000003 389.80899999999997 369.103 394.813 L 382.498 397.61699999999996 C 357.52 427.191 308.101 447.381 251.305 447.381 z" stroke-linecap="round" />
</g>
		<g transform="matrix(1.59 0 0 1.59 306.58 -131.49)"  >
<circle style="stroke: none; stroke-width: 1; stroke-dasharray: none; stroke-linecap: butt; stroke-dashoffset: 0; stroke-linejoin: miter; stroke-miterlimit: 4; fill: rgb(255,104,179); fill-rule: nonzero; opacity: 1;" vector-effect="non-scaling-stroke"  cx="0" cy="0" r="58.694" />
</g>
		<g transform="matrix(1.59 0 0 1.59 -306.54 -131.49)"  >
<path style="stroke: none; stroke-width: 1; stroke-dasharray: none; stroke-linecap: butt; stroke-dashoffset: 0; stroke-linejoin: miter; stroke-miterlimit: 4; fill: rgb(255,104,179); fill-rule: nonzero; opacity: 1;" vector-effect="non-scaling-stroke"  transform=" translate(-58.72, -168.7)" d="M 70.736 226.172 C 102.488 219.528 122.76500000000001 188.402 116.207 156.671 C 109.52 124.96199999999999 78.458 104.59899999999999 46.684 111.243 C 14.974999999999998 117.865 -5.388000000000005 148.97 1.2560000000000002 180.701 C 7.879 212.453 38.984 232.795 70.736 226.172 z" stroke-linecap="round" />
</g>
</g>
</g>
<g transform="matrix(NaN NaN NaN NaN 0 0)"  >
<g style=""   >
</g>
</g>
</svg>