<?xml version="1.0" encoding="UTF-8" standalone="no" ?>
<!DOCTYPE svg PUBLIC "-//W3C//DTD SVG 1.1//EN" "http://www.w3.org/Graphics/SVG/1.1/DTD/svg11.dtd">
<svg xmlns="http://www.w3.org/2000/svg" xmlns:xlink="http://www.w3.org/1999/xlink" version="1.1" width="1080" height="1080" viewBox="0 0 1080 1080" xml:space="preserve">
<desc>Created with Fabric.js 5.2.4</desc>
<defs>
</defs>
<g transform="matrix(1 0 0 1 540 540)" id="af977435-3979-429d-b05b-adb5efe1ad70"  >
<rect style="stroke: none; stroke-width: 1; stroke-dasharray: none; stroke-linecap: butt; stroke-dashoffset: 0; stroke-linejoin: miter; stroke-miterlimit: 4; fill: rgb(255,255,255); fill-rule: nonzero; opacity: 1; visibility: hidden;" vector-effect="non-scaling-stroke"  x="-540" y="-540" rx="0" ry="0" width="1080" height="1080" />
</g>
<g transform="matrix(1 0 0 1 540 540)" id="167528f3-abe1-4a2f-93b2-701bf372f7cf"  >
</g>
<g transform="matrix(1 0 0 1 542 525.72)"  >
<path style="stroke: none; stroke-width: 1; stroke-dasharray: none; stroke-linecap: butt; stroke-dashoffset: 0; stroke-linejoin: miter; stroke-miterlimit: 4; fill: rgb(255,104,179); fill-rule: nonzero; opacity: 1;" vector-effect="non-scaling-stroke"  transform=" translate(-49.5, -49.85)" d="M 65.672 95.207 L 61.476699999999994 95.207 C 58.351699999999994 95.207 55.812599999999996 92.66789999999999 55.812599999999996 89.54289999999999 L 55.812599999999996 79.0739 L 50.3673 71.30829999999999 C 50.277456 71.18329999999999 50.1798 71.17157999999999 50.07042 71.15986 C 49.984483 71.15986 49.8673 71.19111 49.78136 71.32392 L 44.98446 78.94502 L 44.72274 89.67502 C 44.648522 92.77272 42.16024 95.19842 39.06254 95.19842 L 34.65634 95.19842 C 31.53524 95.19842 28.99224 92.65932 28.99224 89.53432 L 28.99224 75.97232 L 33.76954 64.98832 C 29.51954 65.12113000000001 25.85154 62.05472 25.121139999999997 57.99222 L 22.988339999999997 57.99222 L 22.988339999999997 54.99222 L 25.121139999999997 54.99222 C 25.550829999999998 52.589920000000006 26.992239999999995 50.53522 28.988339999999997 49.28522 L 28.988339999999997 43.79302 C 28.988339999999997 42.33992 29.55475 40.96882 30.58214 39.94142 L 35.894639999999995 34.62892 C 33.14854 31.43362 31.484439999999996 27.28122 31.484439999999996 22.74592 C 31.484439999999996 12.683920000000002 39.67193999999999 4.495920000000002 49.73443999999999 4.495920000000002 C 59.79693999999999 4.495920000000002 67.98443999999999 12.683420000000002 67.98443999999999 22.74592 C 67.98443999999999 27.06622 66.47663999999999 31.042820000000003 63.957139999999995 34.17192 L 69.72663999999999 39.94142 C 70.75393999999999 40.96872 71.32043999999999 42.33592 71.32043999999999 43.79302 L 71.32043999999999 49.507819999999995 C 73.14074 50.773419999999994 74.44543999999999 52.73052 74.85163999999999 54.992219999999996 L 75.98443999999999 54.992219999999996 L 75.98443999999999 45.492219999999996 L 78.98443999999999 45.492219999999996 L 78.98443999999999 67.14421999999999 L 75.98443999999999 67.14421999999999 L 75.98443999999999 57.99191999999999 L 74.85163999999999 57.99191999999999 C 74.1407 61.96462 70.66023999999999 64.99192 66.48443999999999 64.99192 L 66.30475 64.99192 L 71.32035 75.75792 L 71.32035 89.53492 C 71.32035 92.65602 68.78125 95.19902 65.65625 95.19902 z M 50.086 68.16399999999999 C 51.1798 68.16399999999999 52.1993 68.69133999999998 52.828199999999995 69.58979999999998 L 58.8165 78.12889999999999 L 58.8165 89.54289999999999 C 58.8165 91.01169999999999 60.0118 92.207 61.480599999999995 92.207 L 65.6759 92.207 C 67.1447 92.207 68.34 91.01169999999999 68.34 89.54289999999999 L 68.34 76.42989999999999 L 62.558800000000005 64.0319 C 60.27760000000001 62.832699999999996 58.601800000000004 60.625699999999995 58.133 58.000699999999995 L 41.867000000000004 58.000699999999995 C 41.40216 60.606199999999994 39.742000000000004 62.80539999999999 37.476400000000005 64.0085 L 31.995900000000006 76.6065 L 31.995900000000006 89.5445 C 31.995900000000006 91.0133 33.19120000000001 92.2086 34.660000000000004 92.2086 L 39.0662 92.2086 C 40.5232 92.2086 41.6912 91.068 41.7303 89.6109 L 42.01155 78.0519 L 47.24985 69.7316 C 47.84751 68.77848 48.878750000000004 68.1925 49.99985 68.1691 L 50.085788 68.1691 z M 66.5 50.999999999999986 C 63.4688 50.999999999999986 61 53.46879999999999 61 56.499999999999986 C 61 59.531199999999984 63.4688 61.999999999999986 66.5 61.999999999999986 C 69.5312 61.999999999999986 72 59.531199999999984 72 56.499999999999986 C 72 53.46879999999999 69.5312 50.999999999999986 66.5 50.999999999999986 z M 33.5 50.999999999999986 C 30.4688 50.999999999999986 28 53.46879999999999 28 56.499999999999986 C 28 59.531199999999984 30.4688 61.999999999999986 33.5 61.999999999999986 C 36.5312 61.999999999999986 39 59.531199999999984 39 56.499999999999986 C 39 53.46879999999999 36.5312 50.999999999999986 33.5 50.999999999999986 z M 41.8672 54.999999999999986 L 58.133199999999995 54.999999999999986 C 58.391009999999994 53.55079999999999 59.01991999999999 52.230499999999985 59.91439999999999 51.13279999999999 L 59.91439999999999 45.499999999999986 L 62.91439999999999 45.499999999999986 L 62.91439999999999 48.792999999999985 C 64.54329999999999 48.03127999999999 66.54329999999999 47.800809999999984 68.3363 48.199249999999985 L 68.3363 43.79694999999998 C 68.3363 43.14069999999998 68.08238999999999 42.52744999999998 67.62146 42.06644999999998 L 61.90666 36.35164999999998 C 58.67616 39.24224999999998 54.414460000000005 41.00004999999998 49.75066 41.00004999999998 C 45.297560000000004 41.00004999999998 41.21546000000001 39.39844999999998 38.04366 36.742249999999984 L 32.71556 42.07034999999998 C 32.25853 42.52737999999999 31.996810000000004 43.156249999999986 31.996810000000004 43.80084999999998 L 31.996810000000004 48.136749999999985 C 33.63741 47.84377999999999 35.422610000000006 48.066436999999986 36.91091 48.71877999999999 L 36.91091 45.50397999999999 L 39.91091 45.50397999999999 L 39.91091 50.929779999999994 C 40.899190000000004 52.06258 41.59061 53.46097999999999 41.86401 55.00397999999999 z M 49.75 7.499999999999986 C 41.3398 7.499999999999986 34.5 14.339799999999986 34.5 22.749999999999986 C 34.5 31.160199999999985 41.3398 37.999999999999986 49.75 37.999999999999986 C 58.1602 37.999999999999986 65 31.160199999999985 65 22.749999999999986 C 65 14.339799999999986 58.1602 7.499999999999986 49.75 7.499999999999986 z M 89 67.15199999999999 L 80 67.15199999999999 L 80 45.499999999999986 L 89 45.499999999999986 z M 23 67.15199999999999 L 20 67.15199999999999 L 20 45.499999999999986 L 23 45.499999999999986 z M 19 67.15199999999999 L 10 67.15199999999999 L 10 45.499999999999986 L 19 45.499999999999986 z M 95 61.99969999999999 L 92 61.99969999999999 L 92 50.49969999999999 L 95 50.49969999999999 z M 7 61.99969999999999 L 4 61.99969999999999 L 4 50.49969999999999 L 7 50.49969999999999 z" stroke-linecap="round" />
</g>
<g transform="matrix(NaN NaN NaN NaN 0 0)"  >
<g style=""   >
</g>
</g>
<g transform="matrix(NaN NaN NaN NaN 0 0)"  >
<g style=""   >
</g>
</g>
<g transform="matrix(NaN NaN NaN NaN 0 0)"  >
<g style=""   >
</g>
</g>
<g transform="matrix(NaN NaN NaN NaN 0 0)"  >
<g style=""   >
</g>
</g>
</svg>