<?xml version="1.0" encoding="UTF-8" standalone="no" ?>
<!DOCTYPE svg PUBLIC "-//W3C//DTD SVG 1.1//EN" "http://www.w3.org/Graphics/SVG/1.1/DTD/svg11.dtd">
<svg xmlns="http://www.w3.org/2000/svg" xmlns:xlink="http://www.w3.org/1999/xlink" version="1.1" width="1080" height="1080" viewBox="0 0 1080 1080" xml:space="preserve">
<desc>Created with Fabric.js 5.2.4</desc>
<defs>
</defs>
<rect x="0" y="0" width="100%" height="100%" fill="transparent"></rect>
<g transform="matrix(1 0 0 1 540 540)" id="739f4de8-55be-4d4c-8867-38f14ad83e12"  >
</g>
<g transform="matrix(1 0 0 1 540 540)" id="560ef3a2-7c4f-41dc-be09-bae50957dd5d"  >
<rect style="stroke: none; stroke-width: 1; stroke-dasharray: none; stroke-linecap: butt; stroke-dashoffset: 0; stroke-linejoin: miter; stroke-miterlimit: 4; fill: rgb(255,255,255); fill-rule: nonzero; opacity: 1; visibility: hidden;" vector-effect="non-scaling-stroke"  x="-540" y="-540" rx="0" ry="0" width="1080" height="1080" />
</g>
<g transform="matrix(1 0 0 1 540 540)"  >
<rect style="stroke: none; stroke-width: 1; stroke-dasharray: none; stroke-linecap: butt; stroke-dashoffset: 0; stroke-linejoin: miter; stroke-miterlimit: 4; fill: rgb(255,255,255); fill-rule: nonzero; opacity: 1; visibility: hidden;" vector-effect="non-scaling-stroke"  x="-540" y="-540" rx="0" ry="0" width="1080" height="1080" />
</g>
<g transform="matrix(1 0 0 1 540 540)"  >
<rect style="stroke: none; stroke-width: 1; stroke-dasharray: none; stroke-linecap: butt; stroke-dashoffset: 0; stroke-linejoin: miter; stroke-miterlimit: 4; fill: rgb(255,255,255); fill-rule: nonzero; opacity: 1; visibility: hidden;" vector-effect="non-scaling-stroke"  x="-540" y="-540" rx="0" ry="0" width="1080" height="1080" />
</g>
<g transform="matrix(0 0 0 0 0 0)"  >
<g style=""   >
</g>
</g>
<g transform="matrix(0 0 0 0 0 0)"  >
<g style=""   >
</g>
</g>
<g transform="matrix(0 0 0 0 0 0)"  >
<g style=""   >
</g>
</g>
<g transform="matrix(1 0 0 1 540 540)"  >
<path style="stroke: rgb(0,0,0); stroke-width: 0; stroke-dasharray: none; stroke-linecap: butt; stroke-dashoffset: 0; stroke-linejoin: miter; stroke-miterlimit: 4; fill: rgb(255,104,179); fill-rule: nonzero; opacity: 1;" vector-effect="non-scaling-stroke"  transform=" translate(-256, -256)" d="M 93.75 81.443 C 88.37 81.443 81.382 83.93299999999999 71.392 90.41 C 75.35799999999999 95.092 79.559 100.097 87.862 109.666 C 93.64399999999999 116.329 99.47999999999999 122.95599999999999 103.88799999999999 127.75399999999999 C 103.92599999999999 127.79599999999999 103.943 127.809 103.97999999999999 127.85 L 134.874 109.91799999999999 L 120.222 95.77 C 108.92999999999999 86.366 101.578 81.904 94.804 81.477 C 94.459 81.455 94.108 81.443 93.749 81.443 z M 213.82999999999998 96.525 C 212.945 96.515 212.063 96.519 211.18699999999998 96.53500000000001 C 200.72699999999998 96.72800000000001 190.987 98.76500000000001 184.445 101.95900000000002 L 117.18299999999999 140.997 C 119.633 141.54100000000003 122.068 142.193 124.47 143.01700000000002 C 141.745 148.94000000000003 157.563 161.24 174.038 177.71700000000004 L 390.478 391.21700000000004 L 471.456 346.78400000000005 L 258.54 111.38 C 249.88400000000001 103.53999999999999 236.05 98.472 221.84700000000004 96.98599999999999 C 219.17000000000004 96.70599999999999 216.48400000000004 96.55599999999998 213.82900000000004 96.526 z M 58.192 102.74 C 40.649 123.463 37.622 139.926 42.866 159.744 C 43.558 162.362 45.923 166.101 49.239 170.214 C 51.434 167.07 53.788999999999994 163.91 56.324999999999996 160.736 C 60.315 155.74099999999999 64.71 151.553 69.41 148.178 L 69.304 147.978 L 72.072 146.368 C 73.426 145.506 74.802 144.708 76.202 143.975 L 88.07 137.085 C 83.895 132.467 79.13 127.06800000000001 74.267 121.46300000000001 C 68.31099999999999 114.599 62.535 107.843 58.193 102.74000000000001 z M 242.285 116.178 L 300.7 177.848 C 254.61399999999998 172.811 243.91 191.048 231.673 212.048 L 174.339 152.744 L 242.285 116.178 z M 103.702 157.23 C 102.988 157.214 102.27199999999999 157.214 101.55199999999999 157.232 C 94.576 157.412 87.345 159.29 79.3 163.117 C 76.265 165.40699999999998 73.31 168.313 70.39 171.969 C 44.620000000000005 204.233 39.94 231.10399999999998 44.906 255.446 C 49.870999999999995 279.789 65.44200000000001 302.102 82.822 321.901 C 96.136 337.069 111.682 345.89300000000003 131.294 349.831 C 150.90800000000002 353.771 174.73200000000003 352.53900000000004 203.274 346.356 C 236.52 339.156 269.284 354.776 299.084 374.021 C 325.202 390.889 349.76 411.111 370.064 423.971 L 378.85400000000004 405.036 L 161.33400000000003 190.466 L 161.31200000000004 190.44400000000002 C 145.78800000000004 174.92000000000002 131.74700000000004 164.53900000000002 118.63000000000004 160.04200000000003 C 113.61000000000004 158.32000000000002 108.70500000000004 157.34700000000004 103.70200000000004 157.22900000000004 z M 470.782 367.686 L 397.332 407.99 L 386.852 430.557 L 457.68499999999995 392.14700000000005 L 470.78099999999995 367.68700000000007 z" stroke-linecap="round" />
</g>
<g transform="matrix(0 0 0 0 0 0)"  >
<g style=""   >
</g>
</g>
</svg>